<mxfile host="app.diagrams.net" modified="2024-04-15T02:41:34.571Z" agent="Mozilla/5.0 (X11; Linux x86_64) AppleWebKit/537.36 (KHTML, like Gecko) Chrome/121.0.0.0 Safari/537.36" version="24.2.5" etag="8P_W2eI5YJlnadJzVEMk" type="github">
  <diagram name="Page-1" id="W_sicCOU3BVT2Js4Kbka">
    <mxGraphModel>
      <root>
        <mxCell id="0" />
        <mxCell id="1" parent="0" />
      </root>
    </mxGraphModel>
  </diagram>
</mxfile>
